<?xml version="1.0" encoding="UTF-8" standalone="no"?>
<svg
   xmlns:dc="http://purl.org/dc/elements/1.1/"
   xmlns:cc="http://creativecommons.org/ns#"
   xmlns:rdf="http://www.w3.org/1999/02/22-rdf-syntax-ns#"
   xmlns:svg="http://www.w3.org/2000/svg"
   xmlns="http://www.w3.org/2000/svg"
   xmlns:sodipodi="http://sodipodi.sourceforge.net/DTD/sodipodi-0.dtd"
   xmlns:inkscape="http://www.inkscape.org/namespaces/inkscape"
   inkscape:version="1.0 (6e3e5246a0, 2020-05-07)"
   sodipodi:docname="asset.svg"
   id="svg8"
   version="1.1"
   viewBox="0 0 36.096913 38.818814"
   height="38.818813mm"
   width="36.096912mm">
  <defs
     id="defs2">
    <marker
       inkscape:isstock="true"
       orient="auto"
       refY="0"
       refX="0"
       id="InfiniteLineEnd"
       inkscape:stockid="InfiniteLineEnd"
       style="overflow:visible">
      <g
         style="fill:#20a4f3;fill-opacity:1;stroke:none;stroke-opacity:1"
         id="g1082">
        <circle
           style="fill:#20a4f3;fill-opacity:1;stroke:none;stroke-opacity:1"
           cx="3"
           cy="0"
           r="0.80000001"
           id="circle1076" />
        <circle
           style="fill:#20a4f3;fill-opacity:1;stroke:none;stroke-opacity:1"
           cx="6.5"
           cy="0"
           r="0.80000001"
           id="circle1078" />
        <circle
           style="fill:#20a4f3;fill-opacity:1;stroke:none;stroke-opacity:1"
           cx="10"
           cy="0"
           r="0.80000001"
           id="circle1080" />
      </g>
    </marker>
    <marker
       inkscape:isstock="true"
       orient="auto"
       refY="0"
       refX="0"
       id="InfiniteLineStart"
       inkscape:stockid="InfiniteLineStart"
       style="overflow:visible">
      <g
         transform="translate(-13)"
         style="fill:#20a4f3;fill-opacity:1;stroke:none;stroke-opacity:1"
         id="g1091">
        <circle
           style="fill:#20a4f3;fill-opacity:1;stroke:none;stroke-opacity:1"
           cx="3"
           cy="0"
           r="0.80000001"
           id="circle1085" />
        <circle
           style="fill:#20a4f3;fill-opacity:1;stroke:none;stroke-opacity:1"
           cx="6.5"
           cy="0"
           r="0.80000001"
           id="circle1087" />
        <circle
           style="fill:#20a4f3;fill-opacity:1;stroke:none;stroke-opacity:1"
           cx="10"
           cy="0"
           r="0.80000001"
           id="circle1089" />
      </g>
    </marker>
    <marker
       inkscape:isstock="true"
       style="overflow:visible"
       id="DiamondLstart"
       refX="0"
       refY="0"
       orient="auto"
       inkscape:stockid="DiamondLstart">
      <path
         transform="matrix(0.8,0,0,0.8,5.6,0)"
         style="fill:#20a4f3;fill-opacity:1;fill-rule:evenodd;stroke:none;stroke-width:1pt;stroke-opacity:1"
         d="M 0,-7.0710768 -7.0710894,0 0,7.0710589 7.0710462,0 Z"
         id="path929" />
    </marker>
    <marker
       inkscape:stockid="Arrow1Mend"
       orient="auto"
       refY="0"
       refX="0"
       id="marker1515"
       style="overflow:visible"
       inkscape:isstock="true">
      <path
         id="path1513"
         d="M 0,0 5,-5 -12.5,0 5,5 Z"
         style="fill:#20a4f3;fill-opacity:1;fill-rule:evenodd;stroke:none;stroke-width:1pt;stroke-opacity:1"
         transform="matrix(-0.4,0,0,-0.4,-4,0)" />
    </marker>
    <marker
       inkscape:isstock="true"
       style="overflow:visible"
       id="marker1301"
       refX="0"
       refY="0"
       orient="auto"
       inkscape:stockid="Arrow1Lstart">
      <path
         transform="matrix(0.8,0,0,0.8,10,0)"
         style="fill:#20a4f3;fill-opacity:1;fill-rule:evenodd;stroke:none;stroke-width:1pt;stroke-opacity:1"
         d="M 0,0 5,-5 -12.5,0 5,5 Z"
         id="path1299" />
    </marker>
    <marker
       inkscape:stockid="Arrow1Mend"
       orient="auto"
       refY="0"
       refX="0"
       id="marker1249"
       style="overflow:visible"
       inkscape:isstock="true">
      <path
         id="path1247"
         d="M 0,0 5,-5 -12.5,0 5,5 Z"
         style="fill:#20a4f3;fill-opacity:1;fill-rule:evenodd;stroke:none;stroke-width:1pt;stroke-opacity:1"
         transform="matrix(-0.4,0,0,-0.4,-4,0)" />
    </marker>
    <inkscape:path-effect
       fuse_tolerance="0"
       hide_knot="false"
       vertical_pattern="false"
       prop_units="false"
       tang_offset="0"
       normal_offset="0"
       spacing="0"
       scale_y_rel="false"
       prop_scale="1"
       copytype="single_stretched"
       pattern="m 86.642317,75.491602 c -0.07024,-0.360555 0.145683,-0.714297 0.481964,-0.789603 0.336281,-0.07531 0.666209,0.156199 0.736445,0.516754 0.07024,0.360554 -0.145683,0.714296 -0.481964,0.789603 -0.336281,0.07531 -0.666209,-0.1562 -0.736445,-0.516754 z"
       lpeversion="1"
       is_visible="true"
       id="path-effect1245"
       effect="skeletal" />
    <inkscape:path-effect
       fuse_tolerance="0"
       hide_knot="false"
       vertical_pattern="false"
       prop_units="false"
       tang_offset="0"
       normal_offset="0"
       spacing="0"
       scale_y_rel="false"
       prop_scale="1"
       copytype="single_stretched"
       pattern="M 0,5 C 0,2.24 2.24,0 5,0 7.76,0 10,2.24 10,5 10,7.76 7.76,10 5,10 2.24,10 0,7.76 0,5 Z"
       lpeversion="1"
       is_visible="true"
       id="path-effect1241"
       effect="skeletal" />
    <marker
       inkscape:collect="always"
       inkscape:isstock="true"
       style="overflow:visible"
       id="Arrow1Mend"
       refX="0"
       refY="0"
       orient="auto"
       inkscape:stockid="Arrow1Mend">
      <path
         transform="matrix(-0.4,0,0,-0.4,-4,0)"
         style="fill:#ff3366;fill-opacity:1;fill-rule:evenodd;stroke:none;stroke-width:1pt;stroke-opacity:1"
         d="M 0,0 5,-5 -12.5,0 5,5 Z"
         id="path850" />
    </marker>
    <marker
       inkscape:isstock="true"
       style="overflow:visible"
       id="Arrow1Lend"
       refX="0"
       refY="0"
       orient="auto"
       inkscape:stockid="Arrow1Lend">
      <path
         transform="matrix(-0.8,0,0,-0.8,-10,0)"
         style="fill:#ff3366;fill-opacity:1;fill-rule:evenodd;stroke:none;stroke-width:1pt;stroke-opacity:1"
         d="M 0,0 5,-5 -12.5,0 5,5 Z"
         id="path844" />
    </marker>
    <marker
       inkscape:isstock="true"
       style="overflow:visible"
       id="Arrow1Send"
       refX="0"
       refY="0"
       orient="auto"
       inkscape:stockid="Arrow1Send">
      <path
         transform="matrix(-0.2,0,0,-0.2,-1.2,0)"
         style="fill:#ff3366;fill-opacity:1;fill-rule:evenodd;stroke:none;stroke-width:1pt;stroke-opacity:1"
         d="M 0,0 5,-5 -12.5,0 5,5 Z"
         id="path856" />
    </marker>
    <marker
       inkscape:isstock="true"
       style="overflow:visible"
       id="Arrow1Sstart"
       refX="0"
       refY="0"
       orient="auto"
       inkscape:stockid="Arrow1Sstart">
      <path
         transform="matrix(0.2,0,0,0.2,1.2,0)"
         style="fill:#ff3366;fill-opacity:1;fill-rule:evenodd;stroke:none;stroke-width:1pt;stroke-opacity:1"
         d="M 0,0 5,-5 -12.5,0 5,5 Z"
         id="path853" />
    </marker>
    <marker
       inkscape:isstock="true"
       style="overflow:visible"
       id="Arrow1Lstart"
       refX="0"
       refY="0"
       orient="auto"
       inkscape:stockid="Arrow1Lstart">
      <path
         transform="matrix(0.8,0,0,0.8,10,0)"
         style="fill:#ff3366;fill-opacity:1;fill-rule:evenodd;stroke:none;stroke-width:1pt;stroke-opacity:1"
         d="M 0,0 5,-5 -12.5,0 5,5 Z"
         id="path841" />
    </marker>
    <inkscape:path-effect
       fuse_tolerance="0"
       hide_knot="false"
       vertical_pattern="false"
       prop_units="false"
       tang_offset="0"
       normal_offset="0"
       spacing="0"
       scale_y_rel="false"
       prop_scale="1"
       copytype="single_stretched"
       pattern="m 84.897187,78.845328 c 0,-0.368334 0.278813,-0.667273 0.622351,-0.667273 0.343537,0 0.622351,0.298939 0.622351,0.667273 0,0.368335 -0.278814,0.667274 -0.622351,0.667274 -0.343538,0 -0.622351,-0.298939 -0.622351,-0.667274 z"
       lpeversion="1"
       is_visible="true"
       id="path-effect16"
       effect="skeletal" />
    <inkscape:path-effect
       fuse_tolerance="0"
       hide_knot="false"
       vertical_pattern="false"
       prop_units="false"
       tang_offset="0"
       normal_offset="0"
       spacing="0"
       scale_y_rel="false"
       prop_scale="1"
       copytype="single_stretched"
       pattern="M 0,5 C 0,2.24 2.24,0 5,0 7.76,0 10,2.24 10,5 10,7.76 7.76,10 5,10 2.24,10 0,7.76 0,5 Z"
       lpeversion="1"
       is_visible="true"
       id="path-effect12"
       effect="skeletal" />
  </defs>
  <sodipodi:namedview
     fit-margin-bottom="0"
     fit-margin-right="0"
     fit-margin-left="0"
     fit-margin-top="0"
     inkscape:window-maximized="1"
     inkscape:window-y="0"
     inkscape:window-x="0"
     inkscape:window-height="572"
     inkscape:window-width="1024"
     showgrid="false"
     inkscape:document-rotation="0"
     inkscape:current-layer="layer1"
     inkscape:document-units="mm"
     inkscape:cy="82.514385"
     inkscape:cx="-95.361602"
     inkscape:zoom="0.98994949"
     inkscape:pageshadow="2"
     inkscape:pageopacity="0.0"
     borderopacity="1.0"
     bordercolor="#666666"
     pagecolor="#ffffff"
     id="base" />
  <metadata
     id="metadata5">
    <rdf:RDF>
      <cc:Work
         rdf:about="">
        <dc:format>image/svg+xml</dc:format>
        <dc:type
           rdf:resource="http://purl.org/dc/dcmitype/StillImage" />
        <dc:title></dc:title>
        <dc:title></dc:title>
      </cc:Work>
    </rdf:RDF>
  </metadata>
  <g
     transform="translate(-82.293907,-55.040008)"
     id="layer1"
     inkscape:groupmode="layer"
     inkscape:label="Layer 1">
    <path
       sodipodi:nodetypes="ccsccccccccc"
       id="path14"
       d="m 90.680689,76.391496 c 0.490885,0.04051 -0.427955,2.854175 2.776855,5.646197 1.754717,1.533449 4.591326,2.61592 7.790056,4.09676 2.3e-4,1.07e-4 0.0924,0.04274 0.0927,0.04284 3.14173,1.441731 2.9579,3.453545 5.59564,4.466856 4.84027,1.857263 11.71881,2.614573 11.44707,2.840052 -0.27173,0.22548 -9.73003,-0.467834 -14.90864,-2.118255 -2.87093,-0.913077 -0.45781,-2.422031 -3.83474,-3.965257 -0.0325,-0.01478 -0.065,-0.0296 -0.0976,-0.04446 -3.34436,-1.527992 -11.531365,-2.507203 -13.26297,-4.278047 -3.557049,-3.640835 4.263095,-6.698123 4.4016,-6.686693 z"
       style="fill:#ff3366;fill-opacity:1;stroke:none;stroke-width:1.365;stroke-linecap:butt;stroke-linejoin:miter;stroke-miterlimit:4;stroke-dasharray:none;stroke-opacity:1;marker-start:url(#Arrow1Mend)" />
    <path
       id="path1243"
       d="m 99.246387,70.614453 c 0.881913,-0.730414 -0.603623,0.706241 -1.749242,4.039209 -0.283826,0.8351 -0.512687,1.885498 -0.325683,2.887361 0.12829,0.766781 0.505173,1.532755 1.063166,2.261332 0.218967,0.284621 0.462878,0.559486 0.729931,0.830231 0.444838,0.450994 0.937138,0.873537 1.441981,1.286057 0,0 0,0 0,0 2.05333,1.667776 4.26523,3.137405 6.02657,4.733328 3.25286,2.938377 4.41373,5.742975 4.62082,6.874292 0.26802,1.464104 -0.852,-2.15648 -5.40924,-5.96809 0,0 0,0 0,0 -0.84003,-0.700387 -1.71329,-1.347051 -2.73404,-2.08785 -1.14253,-0.829181 -2.26124,-1.628617 -3.346613,-2.520786 -0.873939,-0.714248 -1.685235,-1.475689 -2.351825,-2.376992 -0.643468,-0.866344 -1.070281,-1.845884 -1.205527,-2.858911 -0.154418,-1.301236 0.17259,-2.498382 0.586128,-3.418768 0.878459,-1.967734 2.25207,-3.347894 2.653574,-3.680413 z"
       style="fill:#20a4f3;fill-opacity:1;stroke:none;stroke-width:2.16958;stroke-linecap:butt;stroke-linejoin:miter;stroke-miterlimit:4;stroke-dasharray:none;stroke-opacity:1;marker-start:url(#InfiniteLineEnd)" />
  </g>
</svg>
