<?xml version="1.0" encoding="UTF-8" standalone="no"?>
<svg
   xmlns:dc="http://purl.org/dc/elements/1.1/"
   xmlns:cc="http://creativecommons.org/ns#"
   xmlns:rdf="http://www.w3.org/1999/02/22-rdf-syntax-ns#"
   xmlns:svg="http://www.w3.org/2000/svg"
   xmlns="http://www.w3.org/2000/svg"
   xmlns:sodipodi="http://sodipodi.sourceforge.net/DTD/sodipodi-0.dtd"
   xmlns:inkscape="http://www.inkscape.org/namespaces/inkscape"
   width="130.05832mm"
   height="77.858597mm"
   viewBox="0 0 130.05832 77.858597"
   version="1.1"
   id="svg8"
   inkscape:version="1.0 (6e3e5246a0, 2020-05-07)"
   sodipodi:docname="textjs-logo-dark.svg">
  <defs
     id="defs2">
    <rect
       x="64.25869"
       y="89.065353"
       width="84.924011"
       height="37.605335"
       id="rect845" />
  </defs>
  <sodipodi:namedview
     id="base"
     pagecolor="#ffffff"
     bordercolor="#666666"
     borderopacity="1.0"
     inkscape:pageopacity="0.0"
     inkscape:pageshadow="2"
     inkscape:zoom="0.49497475"
     inkscape:cx="87.39127"
     inkscape:cy="252.75098"
     inkscape:document-units="mm"
     inkscape:current-layer="layer1"
     inkscape:document-rotation="0"
     showgrid="false"
     inkscape:window-width="1024"
     inkscape:window-height="572"
     inkscape:window-x="0"
     inkscape:window-y="0"
     inkscape:window-maximized="1" />
  <metadata
     id="metadata5">
    <rdf:RDF>
      <cc:Work
         rdf:about="">
        <dc:format>image/svg+xml</dc:format>
        <dc:type
           rdf:resource="http://purl.org/dc/dcmitype/StillImage" />
        <dc:title />
      </cc:Work>
    </rdf:RDF>
  </metadata>
  <g
     inkscape:label="Layer 1"
     inkscape:groupmode="layer"
     id="layer1"
     transform="translate(-41.911484,-61.844231)">
    <ellipse
       style="fill:#ff3366;stroke-width:1.365;fill-opacity:1"
       id="path833"
       cx="106.94064"
       cy="100.77353"
       rx="65.02916"
       ry="38.929298" />
    <path
       sodipodi:type="star"
       style="fill:#ff3366;stroke-width:1.365;fill-opacity:1"
       id="path837"
       sodipodi:sides="5"
       sodipodi:cx="65.661064"
       sodipodi:cy="76.587921"
       sodipodi:r1="12.555996"
       sodipodi:r2="6.277998"
       sodipodi:arg1="0.42608258"
       sodipodi:arg2="1.0544011"
       inkscape:flatsided="false"
       inkscape:rounded="0"
       inkscape:randomized="0"
       d="m 77.094451,81.7774 -8.333634,0.269898 -4.502129,7.018058 -2.831923,-7.842355 -8.065805,-2.11308 6.58341,-5.116739 -0.482811,-8.324014 6.900693,4.680036 7.767411,-3.031443 -2.318547,8.00916 z"
       inkscape:transform-center-x="0.43335902"
       inkscape:transform-center-y="0.7793399" />
    <path
       sodipodi:type="star"
       style="fill:#ff3366;stroke-width:1.365;fill-opacity:1"
       id="path841"
       sodipodi:sides="5"
       sodipodi:cx="147.85184"
       sodipodi:cy="115.82432"
       sodipodi:r1="21.855433"
       sodipodi:r2="10.927716"
       sodipodi:arg1="-1.6928868"
       sodipodi:arg2="-1.0645683"
       inkscape:flatsided="false"
       inkscape:rounded="0"
       inkscape:randomized="0"
       d="m 145.19012,94.131573 7.96037,12.135587 14.50986,0.32229 -9.08174,11.32086 4.17728,13.89929 -13.57319,-5.13891 -11.92817,8.26794 0.69305,-14.49688 -11.54929,-8.78942 14.00152,-3.82065 z"
       inkscape:transform-center-x="0.82251756"
       inkscape:transform-center-y="-1.2892154" />
    <g
       style="font-size:10.5833px;line-height:1.25;font-family:sans-serif;letter-spacing:0px;word-spacing:0px;white-space:pre;shape-inside:url(#rect845);fill:#011627;fill-opacity:1;stroke-width:0.692784;stroke-miterlimit:4;stroke-dasharray:none"
       id="text843"
       transform="matrix(1.4990039,0,0,1.3899575,-51.534253,-43.321573)"
       aria-label="Txt.js">
      <path
         sodipodi:nodetypes="ccccccccc"
         id="path839"
         style="font-style:normal;font-variant:normal;font-weight:500;font-stretch:normal;font-size:25.4px;font-family:Ubuntu;-inkscape-font-specification:'Ubuntu Medium';text-align:center;text-anchor:middle;fill:#011627;fill-opacity:1;stroke-width:0.692784;stroke-miterlimit:4;stroke-dasharray:none"
         d="m 138.11502,85.353471 -22.38934,4.128156 -31.962409,0.328212 v 22.939911 h -3.2258 V 89.809839 h -5.4102 v -4.281594 z" />
      <path
         id="path842"
         style="font-style:normal;font-variant:normal;font-weight:500;font-stretch:normal;font-size:25.4px;font-family:Ubuntu;-inkscape-font-specification:'Ubuntu Medium';text-align:center;text-anchor:middle;fill:#011627;fill-opacity:1;stroke-width:0.692784;stroke-miterlimit:4;stroke-dasharray:none"
         d="m 95.716352,103.80895 2.8194,-4.343395 h 3.225798 l -4.368798,6.273795 q 1.3716,1.778 2.616198,3.6068 1.27,1.8034 2.0828,3.4036 h -3.327398 q -0.2286,-0.4826 -0.6096,-1.0922 -0.3556,-0.635 -0.7874,-1.2954 -0.4064,-0.6858 -0.8636,-1.3462 -0.4572,-0.6604 -0.889,-1.2446 -0.889,1.143 -1.7526,2.54 -0.8382,1.3716 -1.397,2.4384 h -3.1496 q 0.381,-0.762 0.9144,-1.6256 0.5334,-0.8636 1.143,-1.7526 0.6096,-0.9144 1.2446,-1.8034 0.6604,-0.9144 1.2954,-1.7272 l -4.3942,-6.375395 h 3.3782 z" />
      <path
         id="path844"
         style="font-style:normal;font-variant:normal;font-weight:500;font-stretch:normal;font-size:25.4px;font-family:Ubuntu;-inkscape-font-specification:'Ubuntu Medium';text-align:center;text-anchor:middle;fill:#011627;fill-opacity:1;stroke-width:0.692784;stroke-miterlimit:4;stroke-dasharray:none"
         d="m 104.23289,95.960355 3.0734,-0.508 v 4.0132 h 4.7244 v 2.565395 h -4.7244 v 5.4102 q 0,1.6002 0.508,2.286 0.508,0.6858 1.7272,0.6858 0.8382,0 1.4732,-0.1778 0.6604,-0.1778 1.0414,-0.3302 l 0.508,2.4384 q -0.5334,0.2286 -1.397,0.4572 -0.8636,0.254 -2.032,0.254 -1.4224,0 -2.3876,-0.381 -0.9398,-0.381 -1.4986,-1.0922 -0.5588,-0.7366 -0.7874,-1.7526 -0.2286,-1.0414 -0.2286,-2.3622 z" />
      <path
         id="path846"
         style="font-style:normal;font-variant:normal;font-weight:500;font-stretch:normal;font-size:25.4px;font-family:Ubuntu;-inkscape-font-specification:'Ubuntu Medium';text-align:center;text-anchor:middle;fill:#011627;fill-opacity:1;stroke-width:0.692784;stroke-miterlimit:4;stroke-dasharray:none"
         d="m 118.70415,111.07335 q 0,0.889 -0.6096,1.4478 -0.5842,0.5588 -1.4224,0.5588 -0.8636,0 -1.4478,-0.5588 -0.5842,-0.5588 -0.5842,-1.4478 0,-0.889 0.5842,-1.4478 0.5842,-0.5842 1.4478,-0.5842 0.8382,0 1.4224,0.5842 0.6096,0.5588 0.6096,1.4478 z" />
      <path
         sodipodi:nodetypes="scccscsccscssssssssss"
         id="path848"
         style="font-style:normal;font-variant:normal;font-weight:500;font-stretch:normal;font-size:25.4px;font-family:Ubuntu;-inkscape-font-specification:'Ubuntu Medium';text-align:center;text-anchor:middle;fill:#011627;fill-opacity:1;stroke-width:0.692784;stroke-miterlimit:4;stroke-dasharray:none"
         d="m 120.29482,117.47415 c -0.22013,0 -0.52493,-0.0254 -0.9144,-0.0762 -0.4064,-0.0339 -38.452773,0.50363 -38.757573,0.3851 l 38.097173,-2.89909 c 0.37253,0.11853 0.82127,-0.0514 1.3462,-0.0514 0.7112,0 1.21073,-0.21167 1.4986,-0.635 0.28787,-0.4064 0.4318,-1.02447 0.4318,-1.8542 V 99.465555 h 3.0734 v 12.928595 c 0,1.7272 -0.41487,3.00567 -1.2446,3.8354 -0.8128,0.82973 -1.98967,1.2446 -3.5306,1.2446 z m 5.1054,-21.894795 c 0,0.575733 -0.18627,1.032933 -0.5588,1.3716 -0.37253,0.338667 -0.8128,0.508 -1.3208,0.508 -0.52493,0 -0.97367,-0.169333 -1.3462,-0.508 -0.37253,-0.338667 -0.5588,-0.795867 -0.5588,-1.3716 0,-0.592667 0.18627,-1.058333 0.5588,-1.397 0.37253,-0.338667 0.82127,-0.508 1.3462,-0.508 0.508,0 0.94827,0.169333 1.3208,0.508 0.37253,0.338667 0.5588,0.804333 0.5588,1.397 z" />
      <path
         sodipodi:nodetypes="scscccscscsccccscsccccccssccacacs"
         id="path850"
         style="font-style:normal;font-variant:normal;font-weight:500;font-stretch:normal;font-size:25.4px;font-family:Ubuntu;-inkscape-font-specification:'Ubuntu Medium';text-align:center;text-anchor:middle;fill:#011627;fill-opacity:1;stroke-width:0.692784;stroke-miterlimit:4;stroke-dasharray:none"
         d="m 132.31894,110.53995 c 0.8128,0 1.40547,-0.0931 1.778,-0.2794 0.37253,-0.2032 0.5588,-0.54187 0.5588,-1.016 0,-0.44027 -0.2032,-0.80433 -0.6096,-1.0922 -0.38947,-0.28787 -1.0414,-0.60113 -1.9558,-0.9398 -0.5588,-0.2032 -1.07527,-0.41487 -1.5494,-0.635 -0.4572,-0.23707 -0.85513,-0.508 -1.1938,-0.8128 -0.33867,-0.3048 -0.6096,-0.66887 -0.8128,-1.0922 -0.18627,-0.44027 -0.2794,-0.97367 -0.2794,-1.6002 0,-1.2192 0.44873,-2.17593 1.3462,-2.8702 0.89747,-0.711197 2.11667,-1.066795 3.6576,-1.066795 0.77893,0 1.524,0.0762 2.2352,0.2286 0.7112,0.135467 1.2446,0.270933 1.6002,0.4064 l -0.5588,2.489195 c -0.33867,-0.1524 -0.77047,-0.28787 -1.2954,-0.4064 -0.52493,-0.13547 -1.13453,-0.2032 -1.8288,-0.2032 -0.62653,0 -1.13453,0.11007 -1.524,0.3302 -0.38947,0.2032 -0.5842,0.52493 -0.5842,0.9652 0,0.22013 0.0339,0.41487 0.1016,0.5842 0.0847,0.16933 0.22013,0.3302 0.4064,0.4826 0.18627,0.13547 0.4318,0.2794 0.7366,0.4318 0.3048,0.13547 0.67733,0.2794 1.1176,0.4318 0.72813,0.27093 1.3462,0.54187 1.8542,0.8128 0.508,0.254 0.92287,0.55033 1.2446,0.889 0.33867,0.32173 0.5842,0.69427 0.7366,1.1176 0.1524,0.42333 0.2286,0.93133 0.2286,1.524 0,1.27 -0.47413,2.2352 -1.4224,2.8956 -0.93133,0.64347 -2.85771,0.89065 -4.0132,0.9652 -1.15549,0.0746 -1.93986,-0.67607 -2.8194,-0.3048 -2.23092,0.94172 -4.47671,5.92162 -4.76457,5.80309 0,0 1.05371,-7.50196 3.79937,-8.82569 0.51708,-0.24929 0.99907,0.36407 1.6256,0.5334 0.64347,0.16933 1.3716,0.254 2.1844,0.254 z" />
    </g>
  </g>
</svg>
